<svg xmlns="http://www.w3.org/2000/svg" aria-hidden="true" style="position:absolute;width:0;height:0;overflow:hidden">
  <defs>
    <symbol id="icon-button" viewBox="0 0 32 32">
      <path d="M22.638 16.226a.32.32 0 0 0 0-.453l-2.036-2.036a.32.32 0 0 0-.453.453l1.81 1.81-1.81 1.81a.32.32 0 0 0 .453.453l2.036-2.036zm-13.033.094h12.807v-.64H9.605v.64z" style="fill:var(--color1, #fff)"/>
      <path fill="none" stroke="#fff" stroke-width=".64" d="M31.697 16c0 8.66-7.024 15.68-15.688 15.68S.321 24.66.321 16 7.345.32 16.009.32C24.674.32 31.697 7.34 31.697 16z" style="stroke:var(--color1, #fff)"/>
    </symbol>
    <symbol id="icon-facebook" viewBox="0 0 19 32">
      <path d="M11.328 32H6.209a1.553 1.553 0 0 1-1.551-1.552V18.889H1.672a1.554 1.554 0 0 1-1.551-1.552v-4.953c0-.856.696-1.552 1.551-1.552h2.986v-2.48c0-2.459.771-4.551 2.23-6.05C8.354.796 10.402.001 12.811.001l3.904.006a1.553 1.553 0 0 1 1.548 1.552v4.599c0 .856-.695 1.552-1.55 1.552l-2.628.001c-.802 0-1.006.161-1.049.21-.072.082-.158.313-.158.951v1.96h3.638c.274 0 .539.068.767.195.492.275.798.795.798 1.358l-.002 4.953c0 .855-.696 1.552-1.55 1.552h-3.65v11.559c0 .856-.696 1.552-1.551 1.552zm-4.796-1.876h4.472V18.049c0-.572.465-1.036 1.035-1.036h4.166l.002-4.305h-4.168a1.037 1.037 0 0 1-1.035-1.036V8.873c0-.733.074-1.566.627-2.193.668-.757 1.72-.845 2.454-.845l2.305-.001V1.882l-3.579-.006c-3.872 0-6.279 2.481-6.279 6.476v3.32c0 .571-.464 1.036-1.035 1.036H1.995v4.305h3.502c.571 0 1.035.465 1.035 1.036v12.075zm10.18-28.242z" style="fill:var(--color1, #fff)"/>
    </symbol>
    <symbol id="icon-instagram" viewBox="0 0 31 32">
      <path d="M22.234.528H8.253c-4.55 0-8.252 3.7-8.252 8.248V22.75c0 4.548 3.702 8.248 8.252 8.248h13.982c4.55 0 8.252-3.7 8.252-8.248V8.776c0-4.548-3.702-8.248-8.252-8.248zm6.465 22.223c0 3.563-2.9 6.461-6.465 6.461H8.253c-3.565 0-6.465-2.899-6.465-6.461V8.777c0-3.563 2.9-6.462 6.465-6.462h13.982c3.565 0 6.465 2.899 6.465 6.462v13.974z" style="fill:var(--color1, #fff)"/>
      <path d="M15.243 7.432c-4.596 0-8.336 3.737-8.336 8.331s3.739 8.331 8.336 8.331 8.336-3.737 8.336-8.331c0-4.594-3.739-8.331-8.336-8.331zm0 14.876c-3.611 0-6.549-2.936-6.549-6.545s2.938-6.545 6.549-6.545 6.549 2.936 6.549 6.545-2.938 6.545-6.549 6.545zM23.778 4.473c-1.358 0-2.463 1.104-2.463 2.462s1.105 2.462 2.463 2.462 2.463-1.104 2.463-2.462-1.105-2.462-2.463-2.462zm0 3.137a.676.676 0 1 1 0-1.353.676.676 0 0 1 0 1.353z" style="fill:var(--color1, #fff)"/>
    </symbol>
    <symbol id="icon-logo" viewBox="0 0 115 32">
      <path d="M8.905 15.155c0-.574-.203-1.013-.609-1.318-.406-.311-1.136-.635-2.191-.973-1.055-.345-1.89-.682-2.505-1.014-1.677-.905-2.516-2.125-2.516-3.659 0-.797.223-1.507.669-2.128.453-.628 1.099-1.118 1.937-1.47.845-.351 1.792-.527 2.84-.527 1.055 0 1.995.193 2.82.578.825.378 1.464.916 1.917 1.611.46.696.69 1.486.69 2.372H8.914c0-.676-.213-1.199-.639-1.571-.426-.378-1.024-.568-1.795-.568-.744 0-1.322.159-1.734.476a1.475 1.475 0 0 0-.619 1.237c0 .48.24.882.72 1.206.487.324 1.2.628 2.14.912 1.731.52 2.992 1.165 3.783 1.936s1.187 1.73 1.187 2.878c0 1.277-.483 2.28-1.45 3.01-.967.723-2.269 1.084-3.905 1.084-1.136 0-2.171-.206-3.104-.618-.933-.419-1.647-.99-2.14-1.713-.487-.723-.73-1.561-.73-2.514h3.053c0 1.628.974 2.443 2.921 2.443.724 0 1.288-.145 1.694-.436.406-.297.609-.709.609-1.236zm28.858 1.429h6.461v2.443H34.72V4.27h3.043v12.314zm16.757-.598h-5.335l-1.014 3.041h-3.236L50.433 4.27h2.82l5.528 14.757h-3.236l-1.025-3.04zm-4.514-2.462h3.692L51.842 8l-1.836 5.524zm15.621.101h-2.424v5.402H60.16V4.27h5.488c1.744 0 3.09.389 4.037 1.166s1.42 1.875 1.42 3.294c0 1.007-.22 1.848-.659 2.524-.432.669-1.092 1.203-1.978 1.601l3.195 6.03v.142h-3.266l-2.77-5.402zm-2.424-2.463h2.455c.764 0 1.356-.193 1.775-.578.419-.392.629-.929.629-1.611 0-.696-.2-1.243-.599-1.642-.392-.399-.997-.598-1.815-.598h-2.445v4.429zm24.283 1.47h-5.842v3.953h6.857v2.443h-9.9V4.271h9.88v2.463h-6.837v3.517h5.842v2.382zm8.085-3.274L98.34 4.27h3.499l-4.3 7.318 4.412 7.439h-3.54l-2.84-5.169-2.84 5.169h-3.54l4.413-7.439-4.301-7.318h3.499l2.77 5.088zm16.807 3.274h-5.843v3.953h6.857v2.443h-9.901V4.271h9.879v2.463h-6.836v3.517h5.843v2.382zM23.37 6.391c-3.455 0-6.266 2.809-6.266 6.261s2.811 6.261 6.266 6.261 6.266-2.809 6.266-6.261-2.811-6.261-6.266-6.261zm0 11.42c-2.847 0-5.163-2.314-5.163-5.159s2.316-5.159 5.163-5.159c2.847 0 5.163 2.314 5.163 5.159s-2.316 5.159-5.163 5.159zM23.37 2.275a.552.552 0 0 0-.552.551v2.17a.551.551 0 1 0 1.104 0V2.825a.552.552 0 0 0-.552-.551zM30.714 5.314a.552.552 0 0 0-.78 0l-1.536 1.535a.552.552 0 0 0 .78.78l1.536-1.535a.55.55 0 0 0 0-.779zM18.342 17.676a.552.552 0 0 0-.78 0l-1.536 1.535a.55.55 0 1 0 .78.78l1.536-1.535a.55.55 0 0 0 0-.78zM33.204 12.101h-2.172a.552.552 0 1 0 0 1.102h2.172a.552.552 0 1 0 0-1.102zM15.708 12.101h-2.172a.552.552 0 1 0 0 1.102h2.172a.552.552 0 1 0 0-1.102zM18.342 6.849l-1.536-1.535a.552.552 0 0 0-.78.78l1.536 1.535a.55.55 0 0 0 .78 0 .552.552 0 0 0 0-.78zM30.714 19.211l-1.536-1.535a.552.552 0 0 0-.78.779l1.536 1.535a.55.55 0 0 0 .78 0 .55.55 0 0 0 0-.779zM37.828 30.588l.223-1.624 3.053.418a.552.552 0 0 0 .15-1.092l-3.053-.418.378-2.753 3.053.418a.551.551 0 1 0 .15-1.092l-3.053-.418.07-.508.153-1.116a.551.551 0 0 0-1.094-.15l-.078.57-2.7-.37a3.565 3.565 0 0 0-3.892 2.499l-4.86-.666a2.913 2.913 0 0 1-2.489-3.278l.176-1.285a.551.551 0 0 0-1.094-.15l-.176 1.285a4.017 4.017 0 0 0 3.432 4.52l4.86.666a3.562 3.562 0 0 0 3.075 3.454l2.7.37-.078.57a.551.551 0 0 0 1.094.15zm-3.564-2.182c-1.341-.184-2.283-1.424-2.099-2.764s1.425-2.281 2.766-2.097l2.7.37-.667 4.861-2.7-.37zM65.47 1.967a.552.552 0 1 0 0-1.1.552.552 0 0 0 0 1.1zM62.873 1.967a.552.552 0 1 0 0-1.103.552.552 0 0 0 0 1.103z" style="fill:var(--color1, #fff)"/>
    </symbol>
    <symbol id="icon-telegram" viewBox="0 0 45 32">
      <path d="M44.09.556a1.624 1.624 0 0 0-1.767-.463L2.275 13.977c-.8.279-1.362.955-1.466 1.765a2.103 2.103 0 0 0 .962 2.039l5.725 3.749a1.87 1.87 0 0 0 1.862.102l12.418-6.282-9.678 6.933a1.721 1.721 0 0 0-.726 1.389v6.422c0 .662.379 1.269.988 1.584s1.348.284 1.928-.083l4.349-2.768 4.277 2.798a2.325 2.325 0 0 0 1.727.331 2.277 2.277 0 0 0 1.458-.976L44.218 2.317a1.472 1.472 0 0 0-.127-1.76zM24.088 29.421l-4.429-2.897a1.865 1.865 0 0 0-2.017-.013l-3.713 2.363v-4.841l17.089-12.242c.763-.547.955-1.542.447-2.314s-1.528-1.034-2.37-.607L8.563 19.257l-4.842-3.171L40.6 3.301l-16.512 26.12z" style="fill:var(--color1, #fff)"/>
    </symbol>
    <symbol id="icon-whatsapp" viewBox="0 0 33 32">
      <path d="M27.636 4.534A15.18 15.18 0 0 0 16.834.062h-.002c-2.018 0-3.985.391-5.846 1.161S7.458 3.107 6.031 4.534a15.166 15.166 0 0 0-4.474 10.797c0 2.432.587 4.849 1.7 7.003L.689 29.666a1.403 1.403 0 0 0 .335 1.467 1.405 1.405 0 0 0 1.468.335l7.336-2.566a15.33 15.33 0 0 0 7.007 1.699c4.081 0 7.917-1.588 10.802-4.472s4.474-6.718 4.474-10.797c0-4.079-1.589-7.913-4.474-10.797zm-1.307 20.287a13.345 13.345 0 0 1-9.496 3.931c-2.194 0-4.374-.542-6.304-1.569a1.424 1.424 0 0 0-1.135-.088l-6.665 2.331 2.333-6.661c.13-.372.098-.785-.088-1.135a13.449 13.449 0 0 1-1.57-6.301c0-3.585 1.397-6.956 3.933-9.491s5.908-3.931 9.495-3.931h.001c3.587 0 6.959 1.396 9.496 3.931s3.933 5.906 3.933 9.491-1.397 6.956-3.933 9.491z" style="fill:var(--color1, #fff)"/>
      <path d="M22.511 16.694a1.806 1.806 0 0 0-2.549 0l-.769.768a11.176 11.176 0 0 1-4.493-4.491l.769-.768a1.803 1.803 0 0 0 0-2.548l-2.071-2.07a1.806 1.806 0 0 0-2.549 0L9.192 9.241c-.949.949-.996 2.579-.133 4.592.749 1.748 2.121 3.668 3.862 5.408s3.663 3.111 5.411 3.86c.957.41 1.827.614 2.579.614.831 0 1.517-.25 2.016-.748l1.657-1.656c.341-.34.528-.793.528-1.274s-.188-.934-.528-1.274l-2.071-2.07zm-.892 4.969c-.271.271-1.104.366-2.56-.258-1.538-.659-3.254-1.89-4.833-3.468s-2.811-3.293-3.47-4.83c-.624-1.455-.529-2.288-.258-2.559l1.625-1.624 2.007 2.007-.962.962a1.409 1.409 0 0 0-.261 1.641 13.032 13.032 0 0 0 5.725 5.722 1.41 1.41 0 0 0 1.642-.261l.962-.962 2.008 2.006-1.625 1.624z" style="fill:var(--color1, #fff)"/>
    </symbol>
  </defs>
</svg>
